<svg width="130" height="35" viewBox="0 0 130 35" fill="none" xmlns="http://www.w3.org/2000/svg">
<rect width="35" height="35" rx="10" fill="url(#paint0_linear_1826_215)"/>
<g clip-path="url(#clip0_1826_215)">
<path d="M26.1663 13L18.2497 20.9167L14.083 16.75L7.83301 23" stroke="white" stroke-width="2" stroke-linecap="round" stroke-linejoin="round"/>
<path d="M21.167 13H26.167V18" stroke="white" stroke-width="2" stroke-linecap="round" stroke-linejoin="round"/>
</g>
<path d="M56.584 17.9521C56.584 19.3877 56.3291 20.5918 55.8193 21.5645C55.3154 22.5371 54.5654 23.2695 53.5693 23.7617C52.5791 24.2539 51.3516 24.5 49.8867 24.5H46.8105V11.6504H50.291C51.6621 11.6504 52.8135 11.8906 53.7451 12.3711C54.6768 12.8516 55.3828 13.5605 55.8633 14.498C56.3438 15.4297 56.584 16.5811 56.584 17.9521ZM55.6348 17.9873C55.6348 16.7627 55.4355 15.7402 55.0371 14.9199C54.6387 14.0996 54.0293 13.4844 53.209 13.0742C52.3887 12.6582 51.3486 12.4502 50.0889 12.4502H47.7158V23.7002H49.8428C51.7822 23.7002 53.2324 23.2256 54.1934 22.2764C55.1543 21.3213 55.6348 19.8916 55.6348 17.9873ZM62.6309 14.7793C63.6797 14.7793 64.4648 15.043 64.9863 15.5703C65.5078 16.0977 65.7686 16.9385 65.7686 18.0928V24.5H65.083L64.9248 22.8301H64.8721C64.667 23.1875 64.418 23.5068 64.125 23.7881C63.832 24.0635 63.4717 24.2803 63.0439 24.4385C62.6221 24.5967 62.1064 24.6758 61.4971 24.6758C60.8818 24.6758 60.3545 24.5732 59.915 24.3682C59.4814 24.1631 59.1445 23.8643 58.9043 23.4717C58.6699 23.0791 58.5527 22.6016 58.5527 22.0391C58.5527 21.0898 58.9453 20.3691 59.7305 19.877C60.5156 19.3789 61.6436 19.0977 63.1143 19.0332L64.8896 18.9453V18.251C64.8896 17.2725 64.6963 16.5752 64.3096 16.1592C63.9229 15.7432 63.3516 15.5352 62.5957 15.5352C62.1035 15.5352 61.6289 15.5996 61.1719 15.7285C60.7207 15.8516 60.2607 16.0303 59.792 16.2646L59.5107 15.5264C59.9678 15.3096 60.457 15.1309 60.9785 14.9902C61.5059 14.8496 62.0566 14.7793 62.6309 14.7793ZM64.8809 19.6396L63.2109 19.71C61.998 19.7686 61.0752 19.9854 60.4424 20.3604C59.8096 20.7354 59.4932 21.2979 59.4932 22.0479C59.4932 22.6514 59.6807 23.1143 60.0557 23.4365C60.4365 23.7588 60.9639 23.9199 61.6377 23.9199C62.6865 23.9199 63.4863 23.6211 64.0371 23.0234C64.5938 22.4258 64.875 21.6113 64.8809 20.5801V19.6396ZM71.4199 23.9111C71.6953 23.9111 71.9502 23.8906 72.1846 23.8496C72.4248 23.8086 72.6357 23.7559 72.8174 23.6914V24.4297C72.6299 24.4941 72.4102 24.5498 72.1582 24.5967C71.9062 24.6494 71.6279 24.6758 71.3232 24.6758C70.7842 24.6758 70.3359 24.5762 69.9785 24.377C69.6211 24.1719 69.3516 23.8643 69.1699 23.4541C68.9883 23.0381 68.8975 22.5107 68.8975 21.8721V15.6846H67.4736V15.1572L68.8887 14.8848L69.1963 12.6348H69.7852V14.9463H72.7646V15.6846H69.7852V21.8193C69.7852 22.5049 69.9111 23.0264 70.1631 23.3838C70.4209 23.7354 70.8398 23.9111 71.4199 23.9111ZM77.4492 23.9111C77.7246 23.9111 77.9795 23.8906 78.2139 23.8496C78.4541 23.8086 78.665 23.7559 78.8467 23.6914V24.4297C78.6592 24.4941 78.4395 24.5498 78.1875 24.5967C77.9355 24.6494 77.6572 24.6758 77.3525 24.6758C76.8135 24.6758 76.3652 24.5762 76.0078 24.377C75.6504 24.1719 75.3809 23.8643 75.1992 23.4541C75.0176 23.0381 74.9268 22.5107 74.9268 21.8721V15.6846H73.5029V15.1572L74.918 14.8848L75.2256 12.6348H75.8145V14.9463H78.7939V15.6846H75.8145V21.8193C75.8145 22.5049 75.9404 23.0264 76.1924 23.3838C76.4502 23.7354 76.8691 23.9111 77.4492 23.9111ZM84.2344 14.7793C85.2832 14.7793 86.0684 15.043 86.5898 15.5703C87.1113 16.0977 87.3721 16.9385 87.3721 18.0928V24.5H86.6865L86.5283 22.8301H86.4756C86.2705 23.1875 86.0215 23.5068 85.7285 23.7881C85.4355 24.0635 85.0752 24.2803 84.6475 24.4385C84.2256 24.5967 83.71 24.6758 83.1006 24.6758C82.4854 24.6758 81.958 24.5732 81.5186 24.3682C81.085 24.1631 80.748 23.8643 80.5078 23.4717C80.2734 23.0791 80.1562 22.6016 80.1562 22.0391C80.1562 21.0898 80.5488 20.3691 81.334 19.877C82.1191 19.3789 83.2471 19.0977 84.7178 19.0332L86.4932 18.9453V18.251C86.4932 17.2725 86.2998 16.5752 85.9131 16.1592C85.5264 15.7432 84.9551 15.5352 84.1992 15.5352C83.707 15.5352 83.2324 15.5996 82.7754 15.7285C82.3242 15.8516 81.8643 16.0303 81.3955 16.2646L81.1143 15.5264C81.5713 15.3096 82.0605 15.1309 82.582 14.9902C83.1094 14.8496 83.6602 14.7793 84.2344 14.7793ZM86.4844 19.6396L84.8145 19.71C83.6016 19.7686 82.6787 19.9854 82.0459 20.3604C81.4131 20.7354 81.0967 21.2979 81.0967 22.0479C81.0967 22.6514 81.2842 23.1143 81.6592 23.4365C82.04 23.7588 82.5674 23.9199 83.2412 23.9199C84.29 23.9199 85.0898 23.6211 85.6406 23.0234C86.1973 22.4258 86.4785 21.6113 86.4844 20.5801V19.6396ZM103.386 24.5L101.637 19.9561H96.2402L94.4561 24.5H93.5332L98.5869 11.6064H99.4131L104.335 24.5H103.386ZM101.347 19.1387L99.5713 14.3223C99.5244 14.1992 99.4658 14.041 99.3955 13.8477C99.3311 13.6543 99.2607 13.4492 99.1846 13.2324C99.1143 13.0156 99.0439 12.8105 98.9736 12.6172C98.915 12.8223 98.8506 13.0273 98.7803 13.2324C98.71 13.4375 98.6426 13.6367 98.5781 13.8301C98.5137 14.0176 98.4521 14.1875 98.3936 14.3398L96.5479 19.1387H101.347ZM106.805 10.8242V14.709C106.805 15.043 106.799 15.4092 106.787 15.8076C106.775 16.2061 106.764 16.5371 106.752 16.8008H106.805C107.033 16.209 107.432 15.7197 108 15.333C108.568 14.9463 109.277 14.7529 110.127 14.7529C111.369 14.7529 112.327 15.1719 113.001 16.0098C113.681 16.8477 114.021 18.0752 114.021 19.6924C114.021 20.6826 113.868 21.5527 113.563 22.3027C113.259 23.0469 112.805 23.6299 112.201 24.0518C111.604 24.4678 110.854 24.6758 109.951 24.6758C109.137 24.6758 108.472 24.5059 107.956 24.166C107.44 23.8203 107.065 23.3896 106.831 22.874H106.761L106.594 24.5H105.917V10.8242H106.805ZM110.03 15.5264C109.274 15.5264 108.659 15.6904 108.185 16.0186C107.71 16.3408 107.361 16.8125 107.139 17.4336C106.916 18.0547 106.805 18.8135 106.805 19.71V19.8506C106.805 21.1689 107.045 22.1738 107.525 22.8652C108.006 23.5566 108.785 23.9023 109.863 23.9023C110.93 23.9023 111.735 23.5391 112.28 22.8125C112.831 22.0801 113.106 21.04 113.106 19.6924C113.106 18.3154 112.852 17.2783 112.342 16.5811C111.832 15.8779 111.062 15.5264 110.03 15.5264ZM117.554 24.5H116.657V10.8242H117.554V24.5ZM124.348 14.7617C125.162 14.7617 125.839 14.9521 126.378 15.333C126.923 15.7139 127.327 16.2354 127.591 16.8975C127.86 17.5596 127.995 18.3184 127.995 19.1738V19.8154H121.096C121.096 21.1279 121.397 22.1357 122.001 22.8389C122.61 23.542 123.48 23.8936 124.611 23.8936C125.203 23.8936 125.716 23.8467 126.149 23.7529C126.589 23.6533 127.075 23.4863 127.608 23.252V24.0693C127.14 24.2803 126.671 24.4326 126.202 24.5264C125.733 24.626 125.194 24.6758 124.585 24.6758C123.618 24.6758 122.807 24.4766 122.15 24.0781C121.5 23.6738 121.008 23.1055 120.674 22.373C120.346 21.6406 120.182 20.7852 120.182 19.8066C120.182 18.8516 120.34 17.9932 120.656 17.2314C120.979 16.4697 121.447 15.8691 122.062 15.4297C122.684 14.9844 123.445 14.7617 124.348 14.7617ZM124.339 15.5264C123.425 15.5264 122.684 15.8311 122.115 16.4404C121.553 17.0439 121.222 17.917 121.122 19.0596H127.072C127.072 18.3623 126.973 17.7471 126.773 17.2139C126.574 16.6807 126.272 16.2676 125.868 15.9746C125.47 15.6758 124.96 15.5264 124.339 15.5264Z" fill="#1D2630"/>
<defs>
<linearGradient id="paint0_linear_1826_215" x1="31.5" y1="4" x2="3.5" y2="32.5" gradientUnits="userSpaceOnUse">
<stop stop-color="#1DE9B6"/>
<stop offset="1" stop-color="#1DC4E9"/>
</linearGradient>
<clipPath id="clip0_1826_215">
<rect width="20" height="20" fill="white" transform="translate(7 8)"/>
</clipPath>
</defs>
</svg>
