<svg width="1920" height="130" viewBox="0 0 1920 130" fill="none" xmlns="http://www.w3.org/2000/svg">
<mask id="mask0_1854_204" style="mask-type:luminance" maskUnits="userSpaceOnUse" x="0" y="0" width="1920" height="130">
<path d="M1920 0H0V130H1920V0Z" fill="white"/>
</mask>
<g mask="url(#mask0_1854_204)">
<path opacity="0.6" d="M134 131.693C324.335 131.693 501.938 8.56299 691 8.56299C883.245 8.56299 1060.85 131.693 1245.45 131.693C1435.79 131.693 1613.39 8.56299 1803.73 8.56299C1994.06 8.56299 2171.67 131.693 2362 131.693V152.575H134V131.693Z" fill="white"/>
<path d="M100 131.681C245.399 131.681 381.073 3.89209 525.5 3.89209C672.358 3.89209 808.032 131.681 949.055 131.681C1094.45 131.681 1230.13 3.89209 1375.53 3.89209C1520.93 3.89209 1656.6 131.681 1802 131.681V153.353H100V131.681Z" fill="white" fill-opacity="0.5"/>
<path d="M-369 131.199C-185.072 131.199 -13.4474 32.6943 169.25 32.6943C355.023 32.6943 526.648 131.199 705.039 131.199C888.967 131.199 1060.59 32.6943 1244.52 32.6943C1428.45 32.6943 1600.07 131.199 1784 131.199V147.904H-369V131.199Z" fill="white" fill-opacity="0.9"/>
</g>
</svg>
